<?xml version="1.0" encoding="UTF-8"?>
<svg version="1.1" xmlns="http://www.w3.org/2000/svg" width="500" height="500">
<path d="M0 0 C1.10541138 0.10489746 1.10541138 0.10489746 2.2331543 0.21191406 C7.12796996 0.76602331 14.00933318 1.57183318 17.625 5.1875 C17.71151611 6.60320123 17.73204904 8.023095 17.72265625 9.44140625 C17.71782227 10.72241211 17.71782227 10.72241211 17.71289062 12.02929688 C17.70032227 13.37604492 17.70032227 13.37604492 17.6875 14.75 C17.68298828 15.65169922 17.67847656 16.55339844 17.67382812 17.48242188 C17.66200225 19.71751314 17.6455222 21.95247437 17.625 24.1875 C14.25543506 24.1875 13.87726669 23.80284015 11.3125 21.875 C1.38944924 15.46598373 -11.73500648 15.1688342 -23.125 16.6875 C-23.8675 16.8525 -24.61 17.0175 -25.375 17.1875 C-21.81454823 18.37431726 -18.93691663 18.28439832 -15.1875 18.25 C-13.91519531 18.24097656 -12.64289063 18.23195312 -11.33203125 18.22265625 C-10.35621094 18.21105469 -9.38039063 18.19945312 -8.375 18.1875 C-8.375 19.5075 -8.375 20.8275 -8.375 22.1875 C-9.344375 22.435 -10.31375 22.6825 -11.3125 22.9375 C-14.42653011 23.78835183 -14.42653011 23.78835183 -15.04663086 25.77636719 C-15.51069322 29.18386151 -15.61205407 32.58246552 -15.69140625 36.015625 C-15.7225779 37.13913361 -15.7225779 37.13913361 -15.75437927 38.28533936 C-15.81957088 40.66930288 -15.87861783 43.05337312 -15.9375 45.4375 C-15.98071416 47.05730254 -16.02432937 48.67709443 -16.06835938 50.296875 C-16.17522096 54.26030832 -16.27657333 58.2238486 -16.375 62.1875 C-12.085 61.8575 -7.795 61.5275 -3.375 61.1875 C-3.46224816 58.29025937 -3.56915927 55.39599865 -3.6875 52.5 C-3.71005859 51.68337891 -3.73261719 50.86675781 -3.75585938 50.02539062 C-3.96384919 45.35507387 -4.23520564 41.89816607 -7.375 38.1875 C-9.37193687 36.97606394 -9.37193687 36.97606394 -11.5625 36.375 C-12.820625 35.983125 -14.07875 35.59125 -15.375 35.1875 C-15.375 34.1975 -15.375 33.2075 -15.375 32.1875 C0.96 32.6825 0.96 32.6825 17.625 33.1875 C17.625 46.3875 17.625 59.5875 17.625 73.1875 C6.64452711 78.67773645 -4.37135966 78.46169483 -16.375 78.1875 C-15.39185816 86.20750169 -15.39185816 86.20750169 -10.375 92.1875 C-9.375 93.1875 -8.375 94.1875 -7.375 95.1875 C-10.94598643 96.29480819 -14.27896315 96.31673647 -18.00390625 96.3203125 C-19.28587891 96.32160156 -20.56785156 96.32289063 -21.88867188 96.32421875 C-22.55310303 96.32212402 -23.21753418 96.3200293 -23.90209961 96.31787109 C-25.93415765 96.31250882 -27.96599558 96.31783251 -29.99804688 96.32421875 C-31.27873047 96.32292969 -32.55941406 96.32164062 -33.87890625 96.3203125 C-35.05267822 96.31918457 -36.2264502 96.31805664 -37.43579102 96.31689453 C-40.375 96.1875 -40.375 96.1875 -43.375 95.1875 C-45.04319835 93.06983888 -46.56570625 90.98206086 -48.0625 88.75 C-48.47822266 88.15123047 -48.89394531 87.55246094 -49.32226562 86.93554688 C-52.375 82.45920567 -52.375 82.45920567 -52.375 80.1875 C-53.035 80.1875 -53.695 80.1875 -54.375 80.1875 C-55.890625 78.0625 -55.890625 78.0625 -57.625 75.1875 C-60.30559321 70.8322385 -63.12440518 66.74503553 -66.30859375 62.74609375 C-67.375 61.1875 -67.375 61.1875 -67.375 59.1875 C-68.035 59.1875 -68.695 59.1875 -69.375 59.1875 C-70.8381783 57.21309073 -72.18213064 55.25511129 -73.5 53.1875 C-73.87253906 52.61515625 -74.24507812 52.0428125 -74.62890625 51.453125 C-75.55050408 50.03528218 -76.46355821 48.61189275 -77.375 47.1875 C-77.39976266 52.65014314 -77.41788974 58.11275343 -77.42993164 63.57543945 C-77.43495303 65.43286712 -77.44177141 67.29029085 -77.45043945 69.14770508 C-77.46260117 71.82113621 -77.46825033 74.49451496 -77.47265625 77.16796875 C-77.47781754 77.99523972 -77.48297882 78.82251068 -77.48829651 79.67485046 C-77.4886812 83.6497534 -77.36480119 87.30706833 -76.375 91.1875 C-73.405 92.1775 -73.405 92.1775 -70.375 93.1875 C-70.375 94.1775 -70.375 95.1675 -70.375 96.1875 C-82.585 96.1875 -94.795 96.1875 -107.375 96.1875 C-107.375 95.1975 -107.375 94.2075 -107.375 93.1875 C-105.40777992 91.80626037 -103.40631672 90.47261874 -101.375 89.1875 C-100.05875002 86.55500004 -100.23343704 84.57188513 -100.21386719 81.6237793 C-100.20425964 80.45884445 -100.1946521 79.29390961 -100.18475342 78.09367371 C-100.18050354 76.82912857 -100.17625366 75.56458344 -100.171875 74.26171875 C-100.16332489 72.31940117 -100.16332489 72.31940117 -100.15460205 70.33784485 C-100.14409202 67.59314582 -100.13824972 64.84847608 -100.13476562 62.10375977 C-100.12928792 58.59315842 -100.105276 55.08294631 -100.07679367 51.57246685 C-100.05364246 48.21889166 -100.05171566 44.86536972 -100.046875 41.51171875 C-100.0283548 39.62401009 -100.0283548 39.62401009 -100.00946045 37.69816589 C-100.01246155 36.52377457 -100.01546265 35.34938324 -100.01855469 34.1394043 C-100.01490906 33.1084111 -100.01126343 32.07741791 -100.00750732 31.0151825 C-100.43528871 27.72360687 -101.42774659 25.85313025 -103.375 23.1875 C-105.44200655 21.85956394 -105.44200655 21.85956394 -107.375 21.1875 C-107.375 20.5275 -107.375 19.8675 -107.375 19.1875 C-102.74859847 19.08848252 -98.12281613 19.01596351 -93.49560547 18.96777344 C-91.92225396 18.9476812 -90.34897692 18.92040201 -88.77587891 18.88574219 C-86.51185728 18.83711506 -84.24882427 18.81450865 -81.984375 18.796875 C-81.28318542 18.77622986 -80.58199585 18.75558472 -79.85955811 18.73431396 C-76.44562025 18.73275209 -74.71214769 18.91844892 -72.00585938 21.078125 C-71.19858398 22.12226563 -71.19858398 22.12226563 -70.375 23.1875 C-69.81296875 23.89390625 -69.2509375 24.6003125 -68.671875 25.328125 C-68.16140625 26.02421875 -67.6509375 26.7203125 -67.125 27.4375 C-66.34382813 28.49710938 -66.34382813 28.49710938 -65.546875 29.578125 C-64.96679688 30.37476563 -64.96679688 30.37476563 -64.375 31.1875 C-62.61727327 28.5509099 -61.91350038 26.94978659 -61.0625 24 C-57.95122189 14.512142 -52.96591413 8.61838681 -44.09375 4 C-30.1964325 -2.13647786 -14.7949955 -1.49244422 0 0 Z M-39.375 26.1875 C-42.61192056 33.60544294 -43.75918104 39.84016777 -41 47.625 C-39.64082419 51.1549333 -39.64082419 51.1549333 -37.375 53.1875 C-37.375 44.2775 -37.375 35.3675 -37.375 26.1875 C-38.035 26.1875 -38.695 26.1875 -39.375 26.1875 Z " fill="#F8FCFC" transform="translate(298.375,188.8125)"/>
<path d="M0 0 C1.10541138 0.10489746 1.10541138 0.10489746 2.2331543 0.21191406 C7.12796996 0.76602331 14.00933318 1.57183318 17.625 5.1875 C17.71151611 6.60320123 17.73204904 8.023095 17.72265625 9.44140625 C17.71782227 10.72241211 17.71782227 10.72241211 17.71289062 12.02929688 C17.70032227 13.37604492 17.70032227 13.37604492 17.6875 14.75 C17.68298828 15.65169922 17.67847656 16.55339844 17.67382812 17.48242188 C17.66200225 19.71751314 17.6455222 21.95247437 17.625 24.1875 C14.25543506 24.1875 13.87726669 23.80284015 11.3125 21.875 C1.84558917 15.76059154 -11.542342 14.62896091 -22.4375 16.796875 C-24.45207182 17.30051795 -26.46042491 17.82984783 -28.4609375 18.38671875 C-32.71968634 19.55701836 -37.0367794 20.37168418 -41.375 21.1875 C-40.055 22.5075 -38.735 23.8275 -37.375 25.1875 C-38.035 25.8475 -38.695 26.5075 -39.375 27.1875 C-42.19184808 34.85558645 -42.40408398 41.81613256 -39.12890625 49.36328125 C-38.33670679 51.28015767 -37.83428585 53.16753408 -37.375 55.1875 C-36.715 55.1875 -36.055 55.1875 -35.375 55.1875 C-35.375 61.1275 -35.375 67.0675 -35.375 73.1875 C-36.035 73.1875 -36.695 73.1875 -37.375 73.1875 C-38.86328125 71.1953125 -38.86328125 71.1953125 -40.6875 68.3125 C-44.34919301 62.67550837 -48.18305015 57.19462091 -52.125 51.75 C-52.67969971 50.98123535 -53.23439941 50.2124707 -53.8059082 49.42041016 C-56.04057601 46.33799332 -58.24887662 43.33363635 -60.73828125 40.44921875 C-63.54456618 36.57132144 -62.9367318 32.77725983 -62.375 28.1875 C-60.45311368 19.228553 -56.19808679 11.72088794 -48.59375 6.5 C-33.83503049 -2.23051013 -16.52660967 -1.66712069 0 0 Z " fill="#030609" transform="translate(298.375,188.8125)"/>
<path d="M0 0 C16.335 0.495 16.335 0.495 33 1 C33 14.2 33 27.4 33 41 C22.2166622 46.3916689 10.86378291 46.62748175 -1 46 C-2 45 -2 45 -2.1328125 41.875 C-2.13023437 40.59625 -2.12765625 39.3175 -2.125 38 C-2.12757813 36.72125 -2.13015625 35.4425 -2.1328125 34.125 C-2 31 -2 31 -1 30 C1.18292774 29.76518307 3.37203174 29.58636677 5.5625 29.4375 C7.35880859 29.31181641 7.35880859 29.31181641 9.19140625 29.18359375 C10.11824219 29.12300781 11.04507812 29.06242187 12 29 C11.91275184 26.10275937 11.80584073 23.20849865 11.6875 20.3125 C11.66494141 19.49587891 11.64238281 18.67925781 11.61914062 17.83789062 C11.41115081 13.16757387 11.13979436 9.71066607 8 6 C6.00306313 4.78856394 6.00306313 4.78856394 3.8125 4.1875 C2.554375 3.795625 1.29625 3.40375 0 3 C0 2.01 0 1.02 0 0 Z " fill="#010305" transform="translate(283,221)"/>
<path d="M0 0 C0.99 0 1.98 0 3 0 C3 0.66 3 1.32 3 2 C3.66 2.33 4.32 2.66 5 3 C4.67 3.99 4.34 4.98 4 6 C3.34 5.01 2.68 4.02 2 3 C1.97523734 8.46264314 1.95711026 13.92525343 1.94506836 19.38793945 C1.94004697 21.24536712 1.93322859 23.10279085 1.92456055 24.96020508 C1.91239883 27.63363621 1.90674967 30.30701496 1.90234375 32.98046875 C1.89718246 33.80773972 1.89202118 34.63501068 1.88670349 35.48735046 C1.8863188 39.4622534 2.01019881 43.11956833 3 47 C4.98 47.66 6.96 48.32 9 49 C9 49.99 9 50.98 9 52 C-3.21 52 -15.42 52 -28 52 C-28 51.01 -28 50.02 -28 49 C-26.04690112 47.59886384 -24.04291182 46.26660533 -22 45 C-21.34 44.34 -20.68 43.68 -20 43 C-20.33 45.31 -20.66 47.62 -21 50 C-13.41 49.67 -5.82 49.34 2 49 C1.34 48.34 0.68 47.68 0 47 C-0.24050903 44.97518921 -0.24050903 44.97518921 -0.22705078 42.45849609 C-0.22689972 41.51767181 -0.22674866 40.57684753 -0.22659302 39.60751343 C-0.21627045 38.58976837 -0.20594788 37.57202332 -0.1953125 36.5234375 C-0.1924826 35.48305328 -0.18965271 34.44266907 -0.18673706 33.37075806 C-0.17551704 30.03872306 -0.15040915 26.70695414 -0.125 23.375 C-0.11497256 21.11979554 -0.1058463 18.86458688 -0.09765625 16.609375 C-0.07557178 11.07282546 -0.04207639 5.53643173 0 0 Z " fill="#BFE5F5" transform="translate(219,233)"/>
<path d="M0 0 C0 1.32 0 2.64 0 4 C-0.969375 4.2475 -1.93875 4.495 -2.9375 4.75 C-6.0480107 5.60072892 -6.0480107 5.60072892 -6.67163086 7.57519531 C-7.14346461 11.05939815 -7.23765686 14.5367259 -7.31640625 18.046875 C-7.33718735 18.81807678 -7.35796844 19.58927856 -7.37937927 20.3838501 C-7.44458572 22.83914572 -7.50362484 25.29454521 -7.5625 27.75 C-7.60571274 29.41797935 -7.6493279 31.08594832 -7.69335938 32.75390625 C-7.80023736 36.83583196 -7.90158566 40.91786182 -8 45 C-8.33 45 -8.66 45 -9 45 C-9.04941382 39.64316151 -9.08572607 34.2864555 -9.10986328 28.92944336 C-9.11992491 27.10682871 -9.1335756 25.28423021 -9.15087891 23.46166992 C-9.17512021 20.84289565 -9.18648138 18.22433469 -9.1953125 15.60546875 C-9.20563507 14.78974899 -9.21595764 13.97402924 -9.22659302 13.1335907 C-9.2273686 9.22869244 -9.21650661 7.32475992 -7 4 C-10.62498334 3.97106068 -14.24993713 3.95322208 -17.875 3.9375 C-18.90753906 3.92912109 -19.94007813 3.92074219 -21.00390625 3.91210938 C-21.99003906 3.90888672 -22.97617187 3.90566406 -23.9921875 3.90234375 C-24.90339355 3.89710693 -25.81459961 3.89187012 -26.75341797 3.88647461 C-29.03687509 3.85114435 -29.03687509 3.85114435 -31 5 C-31.99 4.01 -32.98 3.02 -34 2 C-22.59838312 -0.1142071 -11.55463979 -0.20923895 0 0 Z " fill="#D0F6FD" transform="translate(290,207)"/>
<path d="M0 0 C10.89 0 21.78 0 33 0 C33 0.33 33 0.66 33 1 C24.42 1.33 15.84 1.66 7 2 C7 3.32 7 4.64 7 6 C7.66 6 8.32 6 9 6 C9 26.46 9 46.92 9 68 C8.67 68 8.34 68 8 68 C7.99413376 67.27194656 7.98826752 66.54389313 7.98222351 65.79377747 C7.92424916 58.92269442 7.85214524 52.0518882 7.76428509 45.18112659 C7.71961336 41.64901334 7.68035062 38.11701456 7.65356445 34.5847168 C7.6225092 30.52102678 7.56772166 26.45795458 7.51171875 22.39453125 C7.50532883 21.1297847 7.4989389 19.86503815 7.49235535 18.56196594 C7.46266411 16.79069588 7.46266411 16.79069588 7.43237305 14.98364258 C7.42126999 13.94661697 7.41016693 12.90959137 7.39872742 11.84114075 C6.93816719 8.55940898 5.94208452 6.66399879 4 4 C1.93299345 2.67206394 1.93299345 2.67206394 0 2 C0 1.34 0 0.68 0 0 Z " fill="#B7F5FF" transform="translate(191,208)"/>
<path d="M0 0 C0 0.33 0 0.66 0 1 C-1.28165039 1.01981934 -2.56330078 1.03963867 -3.88378906 1.06005859 C-8.64001067 1.13614503 -13.39592757 1.22485798 -18.15185547 1.31738281 C-20.21006249 1.35565995 -22.26833612 1.39051504 -24.32666016 1.421875 C-27.28572388 1.46755278 -30.24432957 1.52554302 -33.203125 1.5859375 C-34.12305237 1.59748871 -35.04297974 1.60903992 -35.99078369 1.62094116 C-37.28166901 1.6507457 -37.28166901 1.6507457 -38.59863281 1.68115234 C-39.35364075 1.69447601 -40.10864868 1.70779968 -40.88653564 1.7215271 C-43.27428005 2.03613951 -44.87778851 2.89471139 -47 4 C-49.75 4.125 -49.75 4.125 -52 4 C-51.67 3.34 -51.34 2.68 -51 2 C-34.03855246 -3.59139201 -17.36034362 -2.20448808 0 0 Z " fill="#082C44" transform="translate(307,190)"/>
<path d="M0 0 C16.335 0.495 16.335 0.495 33 1 C33 14.2 33 27.4 33 41 C32.67 41 32.34 41 32 41 C32 28.13 32 15.26 32 2 C24.41 2 16.82 2 9 2 C9.33 3.32 9.66 4.64 10 6 C10.66 6.33 11.32 6.66 12 7 C8.76344816 7 7.21247361 6.3449153 4.3125 5 C3.50425781 4.62875 2.69601562 4.2575 1.86328125 3.875 C1.24839844 3.58625 0.63351562 3.2975 0 3 C0 2.01 0 1.02 0 0 Z " fill="#041F34" transform="translate(283,221)"/>
<path d="M0 0 C1.37478516 0.01740234 1.37478516 0.01740234 2.77734375 0.03515625 C3.69644531 0.04417969 4.61554688 0.05320313 5.5625 0.0625 C6.27277344 0.07410156 6.98304688 0.08570313 7.71484375 0.09765625 C7.71484375 0.75765625 7.71484375 1.41765625 7.71484375 2.09765625 C4.41484375 2.09765625 1.11484375 2.09765625 -2.28515625 2.09765625 C-1.95515625 5.72765625 -1.62515625 9.35765625 -1.28515625 13.09765625 C13.93149085 14.07067452 13.93149085 14.07067452 27.71484375 9.09765625 C27.71484375 9.75765625 27.71484375 10.41765625 27.71484375 11.09765625 C29.19984375 11.59265625 29.19984375 11.59265625 30.71484375 12.09765625 C22.47228404 15.63230348 13.90448027 16.27521879 5.02734375 16.28515625 C4.31989014 16.28596191 3.61243652 16.28676758 2.88354492 16.28759766 C-2.15071941 16.23209309 -2.15071941 16.23209309 -3.28515625 15.09765625 C-3.38424927 12.7660557 -3.41486129 10.43135683 -3.41015625 8.09765625 C-3.41273438 6.81890625 -3.4153125 5.54015625 -3.41796875 4.22265625 C-3.24439846 0.13864951 -3.24439846 0.13864951 0 0 Z " fill="#163142" transform="translate(284.28515625,250.90234375)"/>
<path d="M0 0 C2.81939117 2.20979308 5.53058944 4.40062046 8 7 C4.42901357 8.10730819 1.09603685 8.12923647 -2.62890625 8.1328125 C-3.91087891 8.13410156 -5.19285156 8.13539063 -6.51367188 8.13671875 C-7.17810303 8.13462402 -7.84253418 8.1325293 -8.52709961 8.13037109 C-10.55915765 8.12500882 -12.59099558 8.13033251 -14.62304688 8.13671875 C-16.54407227 8.13478516 -16.54407227 8.13478516 -18.50390625 8.1328125 C-19.67767822 8.13168457 -20.8514502 8.13055664 -22.06079102 8.12939453 C-25 8 -25 8 -28 7 C-28 6.34 -28 5.68 -28 5 C-18.76 5 -9.52 5 0 5 C0 3.35 0 1.7 0 0 Z " fill="#E7F9FF" transform="translate(283,277)"/>
<path d="M0 0 C10.89 0 21.78 0 33 0 C33 0.33 33 0.66 33 1 C24.42 1.33 15.84 1.66 7 2 C7 3.32 7 4.64 7 6 C7.66 6 8.32 6 9 6 C9 6.99 9 7.98 9 9 C8.34 9 7.68 9 7 9 C6.54625 8.21625 6.0925 7.4325 5.625 6.625 C3.92348887 3.8764051 2.95480916 3.12078968 0 2 C0 1.34 0 0.68 0 0 Z " fill="#B1E4FB" transform="translate(191,208)"/>
<path d="M0 0 C0.92683594 0.00451172 1.85367187 0.00902344 2.80859375 0.01367188 C5.08079709 0.02538426 7.35286388 0.04178628 9.625 0.0625 C9.625 1.3825 9.625 2.7025 9.625 4.0625 C9.07231445 3.90402588 8.51962891 3.74555176 7.95019531 3.58227539 C5.40435695 3.01317733 3.02800555 2.8521572 0.421875 2.74609375 C-1.04765625 2.68325195 -1.04765625 2.68325195 -2.546875 2.61914062 C-3.56265625 2.57982422 -4.5784375 2.54050781 -5.625 2.5 C-6.65625 2.45681641 -7.6875 2.41363281 -8.75 2.36914062 C-11.2915387 2.26324318 -13.83317196 2.16116557 -16.375 2.0625 C-16.375 1.7325 -16.375 1.4025 -16.375 1.0625 C-10.89230931 -0.09414737 -5.57160726 -0.05166255 0 0 Z " fill="#8EDDE9" transform="translate(280.375,206.9375)"/>
<path d="M0 0 C0.33 0 0.66 0 1 0 C1 5.94 1 11.88 1 18 C0.34 18 -0.32 18 -1 18 C-2.98 14.535 -2.98 14.535 -5 11 C-3.68 10.67 -2.36 10.34 -1 10 C-0.67 6.7 -0.34 3.4 0 0 Z " fill="#403F41" transform="translate(262,244)"/>
<path d="M0 0 C0.98120464 3.05263664 0.98120464 4.94736336 0 8 C-2.31 8.33 -4.62 8.66 -7 9 C-7 8.01 -7 7.02 -7 6 C-5.03277992 4.61876037 -3.03131672 3.28511874 -1 2 C-0.67 1.34 -0.34 0.68 0 0 Z " fill="#B9ECFE" transform="translate(198,276)"/>
<path d="M0 0 C8.91 0 17.82 0 27 0 C27 0.33 27 0.66 27 1 C26.01604248 1.03758423 26.01604248 1.03758423 25.01220703 1.07592773 C22.04959817 1.1917326 19.08731969 1.31452886 16.125 1.4375 C15.09246094 1.47681641 14.05992187 1.51613281 12.99609375 1.55664062 C12.00996094 1.59853516 11.02382813 1.64042969 10.0078125 1.68359375 C9.09660645 1.72025146 8.18540039 1.75690918 7.24658203 1.79467773 C4.96516519 1.86577065 4.96516519 1.86577065 3 3 C2.01 2.01 1.02 1.02 0 0 Z " fill="#E6E9EA" transform="translate(256,209)"/>
<path d="M0 0 C4.875 0.875 4.875 0.875 6 2 C6.08651611 3.41570123 6.10704904 4.835595 6.09765625 6.25390625 C6.09443359 7.10791016 6.09121094 7.96191406 6.08789062 8.84179688 C6.07951172 9.73962891 6.07113281 10.63746094 6.0625 11.5625 C6.05798828 12.46419922 6.05347656 13.36589844 6.04882812 14.29492188 C6.03700225 16.53001314 6.0205222 18.76497437 6 21 C5.01 21 4.02 21 3 21 C3.66 20.67 4.32 20.34 5 20 C5 14.39 5 8.78 5 3 C2.525 2.01 2.525 2.01 0 1 C0 0.67 0 0.34 0 0 Z " fill="#052641" transform="translate(310,192)"/>
<path d="M0 0 C1.32 0.33 2.64 0.66 4 1 C4 1.99 4 2.98 4 4 C4.99 4.33 5.98 4.66 7 5 C7 6.65 7 8.3 7 10 C3.60582235 6.87378374 1.3937282 4.43458973 0 0 Z " fill="#C6EDFA" transform="translate(231,248)"/>
<path d="M0 0 C0.98484375 0.01804688 1.9696875 0.03609375 2.984375 0.0546875 C4.10585938 0.08949219 4.10585938 0.08949219 5.25 0.125 C5.25 0.455 5.25 0.785 5.25 1.125 C3.3136296 1.62935694 1.37585854 2.12833874 -0.5625 2.625 C-1.64144531 2.9034375 -2.72039062 3.181875 -3.83203125 3.46875 C-6.75 4.125 -6.75 4.125 -9.75 4.125 C-9.75 3.465 -9.75 2.805 -9.75 2.125 C-6.40060119 0.09941119 -3.88037449 -0.09238987 0 0 Z " fill="#113352" transform="translate(273.75,203.875)"/>
<path d="M0 0 C3.465 1.98 3.465 1.98 7 4 C6.67 4.66 6.34 5.32 6 6 C3.69 5.67 1.38 5.34 -1 5 C-0.67 3.35 -0.34 1.7 0 0 Z " fill="#C2EDFC" transform="translate(284,279)"/>
<path d="M0 0 C2.875 0.25 2.875 0.25 6 1 C7.375 3.0625 7.375 3.0625 8 5 C5.36 4.34 2.72 3.68 0 3 C0 2.01 0 1.02 0 0 Z " fill="#154B71" transform="translate(283,221)"/>
<path d="M0 0 C0.33 0 0.66 0 1 0 C1.36625971 4.51720311 1.36625971 4.51720311 -0.375 6.8125 C-2 8 -2 8 -4 8 C-2.87548273 5.0280615 -1.77706209 2.66559313 0 0 Z " fill="#0B233A" transform="translate(243,202)"/>
<path d="M0 0 C0.66 0.33 1.32 0.66 2 1 C-0.06185207 4.0927781 -0.90369802 4.68076198 -4.125 6.1875 C-5.21167969 6.70376953 -5.21167969 6.70376953 -6.3203125 7.23046875 C-6.87460938 7.48441406 -7.42890625 7.73835937 -8 8 C-8 7.34 -8 6.68 -8 6 C-6.25 4.4921875 -6.25 4.4921875 -4 2.875 C-3.2575 2.33617187 -2.515 1.79734375 -1.75 1.2421875 C-1.1725 0.83226562 -0.595 0.42234375 0 0 Z " fill="#0D3D5B" transform="translate(252,194)"/>
<path d="M0 0 C0.33 0.66 0.66 1.32 1 2 C1.99 2.33 2.98 2.66 4 3 C-0.43076923 5.09230769 -0.43076923 5.09230769 -3.3125 4.625 C-3.869375 4.41875 -4.42625 4.2125 -5 4 C-3.35 2.68 -1.7 1.36 0 0 Z " fill="#0F2F44" transform="translate(311,260)"/>
<path d="M0 0 C1.65 0.33 3.3 0.66 5 1 C4.67 1.99 4.34 2.98 4 4 C2.68 3.67 1.36 3.34 0 3 C0 2.01 0 1.02 0 0 Z " fill="#8FDFF7" transform="translate(286,207)"/>
<path d="M0 0 C0.33 0 0.66 0 1 0 C1 1.98 1 3.96 1 6 C-1.4375 5.625 -1.4375 5.625 -4 5 C-4.33 4.34 -4.66 3.68 -5 3 C-4.360625 2.87625 -3.72125 2.7525 -3.0625 2.625 C-2.0415625 2.315625 -2.0415625 2.315625 -1 2 C-0.67 1.34 -0.34 0.68 0 0 Z " fill="#071024" transform="translate(314,206)"/>
<path d="M0 0 C2.475 0.99 2.475 0.99 5 2 C5 2.99 5 3.98 5 5 C3.35 4.67 1.7 4.34 0 4 C0 2.68 0 1.36 0 0 Z " fill="#A6E8FF" transform="translate(223,280)"/>
<path d="M0 0 C2.76223278 2.76223278 2.57856291 5.20706617 3 9 C2.01 8.34 1.02 7.68 0 7 C-0.1875 3.375 -0.1875 3.375 0 0 Z " fill="#CAF5FA" transform="translate(219,273)"/>
</svg>
